<svg xmlns="http://www.w3.org/2000/svg" viewBox="0 0 1920 1120">
<g fill="none" fill-rule="evenodd" stroke="#c7b8a8" stroke-linecap="round">
<path stroke-width="8" d="m21.948 0 50.558 161.68q-17.716 14.153 28.457 147.806 46.174 133.652 300.631 413.631"/>
<path stroke-width="8" d="M1062.57 1120Q924.528 678.77 738.833 511.133 553.137 343.494 272.325 268.92q-39.46-13.28-58.634-14.232-19.173-.952-58.232 8.963l-78.02-29.138"/>
<path stroke-width="5" d="M155.46 263.651q18.773 13.995-20.072 35.353c-14.972 8.232-36.072 7.769-63.902 17.652Q51.18 323.866 0 349.126"/>
<path stroke-width="3" d="M146.737 260.623q-27.921.596-39.99 8.297-12.068 7.701-15.29 11.991M1191.957 0q169.5 128.408 257.043 217.479c87.543 89.071 149.906 191.625 199.978 247.521q50.07 55.896 112.983 101.847 16.749 14.32 48.702 32.722T1920 657.87"/>
<path stroke-width="6" d="M1743.478 550.067q15.908-45.765 52.324-77.911 36.417-32.147 124.198-77.912"/>
<path stroke-width="5" d="M817.977 598.104Q272 727 117.707 905.137-36.583 1083.274 0 1059"/>
</g>
</svg>