<svg xmlns="http://www.w3.org/2000/svg" viewBox="0 0 50 34">
  <path fill="#c7b8a8" d="M50 22.453q0 2.31-.952 4.362a12.3 12.3 0 0 1-2.601 3.657 13 13 0 0 1-3.807 2.566A11.1 11.1 0 0 1 38.07 34q-2.538 0-4.695-1.09a13 13 0 0 1-3.744-2.823 14.8 14.8 0 0 1-2.538-3.785q-.952-2.053-.952-3.85 0-6.67 3.3-11.931T37.563 0h1.65v11.034q4.442.385 7.614 3.657Q50 17.96 50 22.453m-26.142 0q0 2.31-.952 4.362a12.3 12.3 0 0 1-2.601 3.657 13 13 0 0 1-3.808 2.566A11.1 11.1 0 0 1 11.93 34q-2.538 0-4.695-1.09a13 13 0 0 1-3.744-2.823 14.8 14.8 0 0 1-2.538-3.785Q0 24.249 0 22.452q0-6.67 3.3-11.931T11.42 0h1.65v11.034q4.442.385 7.614 3.657 3.173 3.27 3.173 7.762"/>
</svg>