<svg xmlns="http://www.w3.org/2000/svg" viewBox="0 0 52 47">
<path fill="#c7b8a8" d="M30.535 46.97V20.464q0-5.237.765-8.782t3.344-6.767q2.658-3.223 5.559-4.07Q43.103 0 48.34 0h3.142v11.199l-2.175-.161q-1.935 0-3.263.644-1.33.645-1.974 1.53-.645.887-1.007 2.498-.363 1.612-.443 2.74t-.08 2.98v2.337h8.942V46.97zM0 46.97V20.464q0-3.787.12-5.76.122-1.975 1.088-4.754a15.5 15.5 0 0 1 2.9-5.035Q6.849 1.772 9.83.886 12.81.001 17.805 0h3.142v11.199l-2.175-.161q-1.61 0-2.78.402-1.168.403-1.893 1.25a9 9 0 0 0-1.168 1.691q-.443.846-.645 2.256a25 25 0 0 0-.241 2.377q-.04.967-.04 2.578v2.175h8.942V46.97z"/>
</svg>