<svg xmlns="http://www.w3.org/2000/svg" viewBox="0 0 751 265">
<path fill="#50737c" d="M.396 145.748h64.432v15.708H18.027v103.22H.396zm11.22 53.053h51.61v15.707h-51.61zm86.32-39.75h8.724L66.715 264.676H49.88l45.454-118.928h14.846l45.454 118.928H137.88zm39.026 72.607h-68.41l4.285-15.387h59.381zm21.063-85.91h17.15l74.212 101.457h-10.495V133.748h19.15v130.928h-17.15L166.68 163.058h8.947l-.452 101.618h-17.15zm-28.714-51.052V.161h19.959v94.535q0 12.884-5.08 22.681-5.082 9.799-14.335 15.242-9.255 5.444-21.593 5.444-11.43 0-20.503-4.446t-14.607-12.701q-5.534-8.256-6.986-19.506H86.49q1.632 8.347 7.439 13.155 5.807 4.809 14.334 4.808 9.618 0 15.333-6.804 5.716-6.804 5.716-17.873M157.974.161h72.942v17.782h-52.983v99.072h52.983v17.782h-72.942zm9.98 56.975h61.148v17.42h-61.149zM238.53.161h19.415l77.842 114.858h-9.617V.16h19.415v134.636h-19.415l-77.842-115.04h9.617l.098 115.04h-19.15zm116.485 0h19.415l77.841 114.858h-9.617V.16h19.415v134.636h-19.415l-77.841-115.04h9.617v115.04h-19.415zm116.484 0h19.96v134.636H471.5zm29.389 0h72.942v17.782h-52.983v116.854h-19.96zm12.701 60.06h58.427v17.782H513.59zM579.45.161h72.943v17.782H599.41v99.072h52.983v17.782H579.45zm9.98 56.975h61.148v17.42H589.43zM660.008.161h41.189q15.06 0 26.038 5.262t16.874 14.97q5.898 9.708 5.898 23.135 0 11.43-5.172 21.048-5.17 9.617-14.516 15.332-9.345 5.716-21.864 5.716h-5.444V74.918l47.721 59.879h-24.858l-47.54-60.967v-4.355h21.048q13.972 0 21.865-6.986t7.893-19.143q0-8.165-3.357-13.79t-9.526-8.619-15.06-2.994h-21.23v116.854h-19.96zM0 0h16.655Q23 0 28.084 2.055q5.082 2.055 8.688 5.696 3.605 3.64 5.516 8.508 1.91 4.866 1.91 10.49t-1.91 10.491q-1.911 4.868-5.516 8.508-3.606 3.642-8.688 5.696Q23 53.5 16.655 53.5H0zm35.907 26.75q0-5.769-2.308-10.203T27.002 9.59 16.655 7.066H7.931v39.367h8.724q6.057 0 10.347-2.56t6.597-6.993 2.308-10.13M48.957 0h16.367q5.984 0 10.347 2.09 4.362 2.092 6.705 5.95 2.343 3.856 2.343 9.192 0 4.543-2.055 8.364a15.8 15.8 0 0 1-5.768 6.093q-3.712 2.27-8.688 2.27h-2.163v-4.253l18.963 23.793H75.13L56.24 29.273v-1.73h8.363q5.551 0 8.688-2.776t3.137-7.607q0-3.245-1.334-5.48t-3.786-3.424-5.984-1.19h-8.436v46.433h-7.931zm252.4 169.876h10.215q3.735 0 6.458 1.305 2.722 1.305 4.185 3.713 1.462 2.407 1.462 5.737 0 2.835-1.282 5.22a9.85 9.85 0 0 1-3.6 3.803q-2.318 1.417-5.423 1.417h-1.35v-2.655l11.835 14.85h-6.165l-11.79-15.12v-1.08h5.22q3.465 0 5.423-1.732 1.957-1.733 1.957-4.748 0-2.025-.832-3.42-.833-1.395-2.363-2.137-1.53-.743-3.735-.743h-5.265v28.98h-4.95zm25.515 0h18.09v4.41h-13.14v24.57h13.14v4.41h-18.09zm2.475 14.13h15.165v4.32h-15.165zm18.945-14.13h9.09q3.915 0 6.705 1.238t4.275 3.555 1.485 5.557-1.485 5.558-4.275 3.555-6.705 1.237h-6.21v-4.41h6.21q2.34 0 3.96-.697 1.62-.698 2.475-2.025.855-1.328.855-3.218 0-2.835-1.89-4.387-1.89-1.553-5.4-1.553h-4.14v28.98h-4.95zm30.195 3.735h2.565l-11.745 29.655h-4.95l13.365-33.39h4.365l13.365 33.39h-5.22zm11.475 20.385h-20.115l1.26-4.32h17.46zm7.92-24.12h4.95v33.39h-4.95zm8.73 0h10.215q3.735 0 6.458 1.305 2.722 1.305 4.185 3.713 1.462 2.407 1.462 5.737 0 2.835-1.282 5.22a9.85 9.85 0 0 1-3.6 3.803q-2.318 1.417-5.423 1.417h-1.35v-2.655l11.835 14.85h-6.165l-11.79-15.12v-1.08h5.22q3.465 0 5.423-1.732 1.957-1.733 1.957-4.748 0-2.025-.832-3.42-.833-1.395-2.363-2.137-1.53-.743-3.735-.743h-5.265v28.98h-4.95zm36.315 0h4.95v33.39h-4.95zm8.73 0h4.815l19.305 28.485h-2.385v-28.485h4.815v33.39h-4.815l-19.305-28.53h2.385v28.53h-4.815zm41.13 0h9.09q3.915 0 6.705 1.238t4.275 3.555 1.485 5.557-1.485 5.558-4.275 3.555-6.705 1.237h-6.21v-4.41h6.21q2.34 0 3.96-.697 1.62-.698 2.475-2.025.855-1.328.855-3.218 0-2.835-1.89-4.387-1.89-1.553-5.4-1.553h-4.14v28.98h-4.95zm23.94 0h10.215q3.735 0 6.458 1.305t4.185 3.713 1.462 5.737q0 2.835-1.282 5.22a9.85 9.85 0 0 1-3.6 3.803q-2.318 1.417-5.423 1.417h-1.35v-2.655l11.835 14.85h-6.165l-11.79-15.12v-1.08h5.22q3.465 0 5.423-1.732 1.957-1.733 1.957-4.748 0-2.025-.832-3.42-.833-1.395-2.363-2.137-1.53-.743-3.735-.743h-5.265v28.98h-4.95zm24.255 16.695q0-3.69 1.35-6.862t3.78-5.558a17.8 17.8 0 0 1 5.648-3.735q3.217-1.35 6.907-1.35 3.78 0 7.02 1.328 3.24 1.327 5.625 3.69t3.713 5.557 1.327 6.93q0 3.69-1.35 6.863a17.1 17.1 0 0 1-3.78 5.557 17.9 17.9 0 0 1-5.625 3.735q-3.195 1.35-6.93 1.35-3.78 0-7.02-1.327t-5.625-3.69-3.712-5.558-1.328-6.93m5.175 0q0 2.745.923 5.108a11.9 11.9 0 0 0 2.632 4.095 12.3 12.3 0 0 0 3.983 2.7q2.272.967 4.972.967t4.973-.967a12.3 12.3 0 0 0 3.982-2.7 11.9 11.9 0 0 0 2.633-4.095q.922-2.363.922-5.108 0-2.79-.922-5.13a12 12 0 0 0-2.633-4.072 12.3 12.3 0 0 0-3.982-2.7q-2.273-.968-4.973-.968t-4.972.968a12.3 12.3 0 0 0-3.983 2.7 12 12 0 0 0-2.632 4.072q-.923 2.34-.923 5.13m32.355 0q0-3.69 1.328-6.862a17.1 17.1 0 0 1 3.712-5.558 17.6 17.6 0 0 1 5.513-3.735q3.127-1.35 6.772-1.35 3.465 0 6.48 1.17a15.9 15.9 0 0 1 5.31 3.375q2.295 2.205 3.6 5.355h-5.715q-1.62-2.52-4.117-3.892-2.498-1.373-5.558-1.373-2.61 0-4.815.968a11.6 11.6 0 0 0-3.847 2.722 12.8 12.8 0 0 0-2.565 4.095q-.923 2.34-.923 5.085t.923 5.108 2.565 4.095a11.8 11.8 0 0 0 3.847 2.7q2.205.967 4.815.967 3.375 0 6.03-1.665t4.185-4.68h5.58q-1.305 3.42-3.622 5.895a15.7 15.7 0 0 1-5.423 3.78q-3.105 1.305-6.75 1.305-3.69 0-6.862-1.327t-5.513-3.69-3.645-5.558-1.305-6.93m35.865-16.695h18.09v4.41h-13.14v24.57h13.14v4.41h-18.09zm2.475 14.13h15.165v4.32h-15.165zm35.955 10.26q0-2.025-1.395-3.307t-4.59-2.093l-2.79-.72q-4.23-1.125-6.255-3.465t-2.025-6.165q0-2.7 1.373-4.837 1.373-2.138 3.735-3.375t5.332-1.238q2.88 0 5.22 1.125t3.938 3.218 2.227 5.017h-5.4q-.585-2.205-2.182-3.465-1.598-1.26-3.848-1.26-2.34 0-3.78 1.35t-1.44 3.465q0 2.025 1.305 3.218 1.305 1.192 4.365 2.047l2.79.765q4.365 1.17 6.48 3.6t2.115 6.21q0 2.835-1.417 5.04t-3.893 3.443-5.76 1.237q-3.15 0-5.715-1.26a11.7 11.7 0 0 1-4.275-3.555q-1.71-2.295-2.25-5.355h5.4q.405 1.71 1.35 2.948a6.4 6.4 0 0 0 2.363 1.912q1.417.675 3.127.675 2.655 0 4.275-1.417t1.62-3.758m24.93 0q0-2.025-1.395-3.307t-4.59-2.093l-2.79-.72q-4.23-1.125-6.255-3.465t-2.025-6.165q0-2.7 1.373-4.837 1.372-2.138 3.735-3.375t5.332-1.238q2.88 0 5.22 1.125t3.938 3.218 2.227 5.017h-5.4q-.585-2.205-2.182-3.465-1.598-1.26-3.848-1.26-2.34 0-3.78 1.35t-1.44 3.465q0 2.025 1.305 3.218 1.305 1.192 4.365 2.047l2.79.765q4.365 1.17 6.48 3.6t2.115 6.21q0 2.835-1.417 5.04t-3.893 3.443-5.76 1.237q-3.15 0-5.715-1.26a11.7 11.7 0 0 1-4.275-3.555q-1.71-2.295-2.25-5.355h5.4q.405 1.71 1.35 2.948a6.4 6.4 0 0 0 2.363 1.912q1.417.675 3.127.675 2.655 0 4.275-1.417t1.62-3.758m9.315 3.375h4.995l-4.635 9.99h-3.69zm-385.695 17.235h10.215q3.735 0 6.458 1.305 2.722 1.305 4.185 3.713 1.462 2.407 1.462 5.737 0 2.835-1.282 5.22a9.85 9.85 0 0 1-3.6 3.803q-2.318 1.417-5.423 1.417h-1.35v-2.655l11.835 14.85h-6.165l-11.79-15.12v-1.08h5.22q3.465 0 5.423-1.732 1.957-1.733 1.957-4.748 0-2.025-.832-3.42-.833-1.395-2.363-2.137-1.53-.743-3.735-.743h-5.265v28.98h-4.95zm25.515 0h18.09v4.41h-13.14v24.57h13.14v4.41h-18.09zm2.475 14.13h15.165v4.32h-15.165zm18.945-14.13h4.815l19.305 28.485h-2.385v-28.485h4.815v33.39h-4.815l-19.305-28.53h2.385v28.53h-4.815zm30.33 0h18.09v4.41h-13.14v24.57h13.14v4.41h-18.09zm2.475 14.13h15.165v4.32h-15.165zm31.005 15.03h-3.105l8.685-29.16h3.51l8.685 29.16h-2.97l8.37-29.16h4.95l-9.675 33.39h-3.645l-8.775-29.025h2.61l-8.775 29.025h-3.645l-9.675-33.39h5.085zm53.37 0h-3.105l8.685-29.16h3.51l8.685 29.16h-2.97l8.37-29.16h4.95l-9.675 33.39h-3.645l-8.775-29.025h2.61l-8.775 29.025h-3.645l-9.675-33.39h5.085zm30.51-29.16h4.95v33.39h-4.95zm7.515 0h21.42v4.41h-21.42zm8.235 2.205h4.95v31.185h-4.95zm15.75-2.205h4.95v33.39h-4.95zm19.845 0h4.95v33.39h-4.95zm2.295 18.765h-19.44v-4.32h19.44zm17.235-18.765h9.09q3.915 0 6.705 1.238t4.275 3.555 1.485 5.557-1.485 5.558-4.275 3.555-6.705 1.237h-6.21v-4.41h6.21q2.34 0 3.96-.697 1.62-.698 2.475-2.025.855-1.328.855-3.218 0-2.835-1.89-4.387-1.89-1.553-5.4-1.553h-4.14v28.98h-4.95zm23.76 21.195v-21.195h4.95v20.79q0 4.14 1.935 6.458 1.935 2.317 5.355 2.317 3.465 0 5.378-2.317 1.912-2.318 1.912-6.458v-20.79h4.95v21.195q0 3.87-1.53 6.818t-4.275 4.567-6.435 1.62q-3.645 0-6.412-1.62t-4.298-4.567-1.53-6.818m28.08-21.195h10.215q3.735 0 6.458 1.305t4.185 3.713 1.462 5.737q0 2.835-1.282 5.22a9.85 9.85 0 0 1-3.6 3.803q-2.318 1.417-5.423 1.417h-1.35v-2.655l11.835 14.85h-6.165l-11.79-15.12v-1.08h5.22q3.465 0 5.423-1.732 1.957-1.733 1.957-4.748 0-2.025-.832-3.42-.833-1.395-2.363-2.137-1.53-.743-3.735-.743h-5.265v28.98h-4.95zm25.515 0h9.09q3.915 0 6.705 1.238t4.275 3.555 1.485 5.557-1.485 5.558-4.275 3.555-6.705 1.237h-6.21v-4.41h6.21q2.34 0 3.96-.697 1.62-.698 2.475-2.025.855-1.328.855-3.218 0-2.835-1.89-4.387-1.89-1.553-5.4-1.553h-4.14v28.98h-4.95zm22.455 16.695q0-3.69 1.35-6.862t3.78-5.558a17.8 17.8 0 0 1 5.648-3.735q3.217-1.35 6.907-1.35 3.78 0 7.02 1.328 3.24 1.327 5.625 3.69t3.713 5.557 1.327 6.93q0 3.69-1.35 6.863a17.1 17.1 0 0 1-3.78 5.557 17.9 17.9 0 0 1-5.625 3.735q-3.195 1.35-6.93 1.35-3.78 0-7.02-1.327t-5.625-3.69-3.712-5.558-1.328-6.93m5.175 0q0 2.745.923 5.108a11.9 11.9 0 0 0 2.632 4.095 12.3 12.3 0 0 0 3.983 2.7q2.272.967 4.972.967t4.973-.967a12.3 12.3 0 0 0 3.982-2.7 11.9 11.9 0 0 0 2.633-4.095q.922-2.363.922-5.108 0-2.79-.922-5.13a12 12 0 0 0-2.633-4.072 12.3 12.3 0 0 0-3.982-2.7q-2.273-.968-4.973-.968t-4.972.968a12.3 12.3 0 0 0-3.983 2.7 12 12 0 0 0-2.632 4.072q-.923 2.34-.923 5.13m50.175 7.695q0-2.025-1.395-3.307t-4.59-2.093l-2.79-.72q-4.23-1.125-6.255-3.465t-2.025-6.165q0-2.7 1.373-4.837 1.372-2.138 3.735-3.375t5.332-1.238q2.88 0 5.22 1.125t3.938 3.218 2.227 5.017h-5.4q-.585-2.205-2.182-3.465-1.598-1.26-3.848-1.26-2.34 0-3.78 1.35t-1.44 3.465q0 2.025 1.305 3.218 1.305 1.192 4.365 2.047l2.79.765q4.365 1.17 6.48 3.6t2.115 6.21q0 2.835-1.417 5.04t-3.893 3.443-5.76 1.237q-3.15 0-5.715-1.26a11.7 11.7 0 0 1-4.275-3.555q-1.71-2.295-2.25-5.355h5.4q.405 1.71 1.35 2.948a6.4 6.4 0 0 0 2.363 1.912q1.417.675 3.127.675 2.655 0 4.275-1.417t1.62-3.758m7.92-24.39h18.09v4.41h-13.14v24.57h13.14v4.41h-18.09zm2.475 14.13h15.165v4.32h-15.165z"/>
</svg>